<?xml version="1.0" encoding="UTF-8" standalone="no"?>
<!DOCTYPE svg PUBLIC "-//W3C//DTD SVG 1.1//EN" "http://www.w3.org/Graphics/SVG/1.1/DTD/svg11.dtd">
<svg width="100%" height="100%" viewBox="0 0 24 24" version="1.1" xmlns="http://www.w3.org/2000/svg" xmlns:xlink="http://www.w3.org/1999/xlink" xml:space="preserve" xmlns:serif="http://www.serif.com/" style="fill-rule:evenodd;clip-rule:evenodd;stroke-linejoin:round;stroke-miterlimit:1.41421;">
    <path d="M17.153,15.094L16.069,15.094L15.684,14.724C17.029,13.159 17.839,11.129 17.839,8.919C17.839,3.993 13.846,0 8.919,0C3.993,0 0,3.993 0,8.919C0,13.846 3.993,17.839 8.919,17.839C11.129,17.839 13.159,17.029 14.724,15.684L15.094,16.069L15.094,17.153L21.955,24L24,21.955L17.153,15.094ZM8.919,15.094C5.503,15.094 2.744,12.336 2.744,8.919C2.744,5.503 5.503,2.744 8.919,2.744C12.336,2.744 15.094,5.503 15.094,8.919C15.094,12.336 12.336,15.094 8.919,15.094ZM9.8,8.2L13,8.2L13,9.8L9.8,9.8L9.8,13L8.2,13L8.2,9.8L5,9.8L5,8.2L8.2,8.2L8.2,5L9.8,5L9.8,8.2Z"/>
</svg>
